<svg width="20px" height="20px" viewBox="0 0 20 20" version="1.1" xmlns="http://www.w3.org/2000/svg"><path d="M17.0453605,7.15199268 C16.8675587,7.15199268 16.6875345,7.09946035 16.5305437,6.98894042 L9.34371715,1.94523083 C9.0541832,1.74176908 8.66564602,1.7439916 8.37692027,1.95230249 L1.42285238,6.98166671 C1.02118212,7.27301908 0.460904645,7.18229979 0.170360464,6.78062953 C-0.119981669,6.37936337 -0.0302726176,5.8182777 0.371397641,5.52813762 L7.32526348,0.49816725 C8.23245637,-0.157678655 9.45827803,-0.166972836 10.374159,0.476346129 L17.5615916,5.52066186 C17.9668987,5.80494257 18.0648917,6.36481596 17.7802069,6.77052716 C17.606042,7.01884344 17.3278227,7.15199268 17.0453605,7.15199268 Z M13.6691482,16.7203521 L4.24060562,16.7203521 C2.7967748,16.7203521 1.62186909,15.5454463 1.62186909,14.1016155 L1.62186909,8.40367641 C1.62186909,7.90825615 2.02353934,7.50658589 2.5189596,7.50658589 C3.01437986,7.50658589 3.41605012,7.90825615 3.41605012,8.40367641 L3.41605012,14.1016155 C3.41605012,14.5564243 3.78579689,14.925969 4.24040357,14.925969 L13.6689461,14.925969 C14.1237549,14.925969 14.4932996,14.5562222 14.4932996,14.1016155 L14.4932996,8.40367641 C14.4932996,7.90825615 14.8949698,7.50658589 15.3903901,7.50658589 C15.8858104,7.50658589 16.2874807,7.90825615 16.2874807,8.40367641 L16.2874807,14.1016155 C16.2878847,15.5454463 15.112979,16.7203521 13.6691482,16.7203521 Z" id="形状"></path><path d="M9.0073082,13.0249049 C7.33880066,13.0249049 5.98104204,11.6673483 5.98104204,9.99863869 C5.98104204,8.3299291 7.33859861,6.97237253 9.0073082,6.97237253 C10.6760178,6.97237253 12.0329682,8.3299291 12.0329682,9.99863869 C12.0329682,11.6673483 10.6758157,13.0249049 9.0073082,13.0249049 Z M9.0073082,8.76675561 C8.32782275,8.76675561 7.77542512,9.31915324 7.77542512,9.99863869 C7.77542512,10.6781241 8.32782275,11.2305218 9.0073082,11.2305218 C9.68638956,11.2305218 10.2387872,10.6781241 10.2387872,9.99863869 C10.2385851,9.31915324 9.68618751,8.76675561 9.0073082,8.76675561 Z"></path></svg>
