<svg width="22px" height="23px" xmlns="http://www.w3.org/2000/svg"><path d="M6.44963355,3.30189505 C6.20279227,2.88995279 5.66874269,2.75611199 5.25686342,3.0029155 C2.09191778,4.90158067 0.15,8.30802038 0.15,12.0142626 C0.15,17.8132615 4.85099886,22.5142603 10.65,22.5142603 C16.4489969,22.5142603 21.15,17.8132612 21.15,12.0141859 C21.1519543,8.3256233 19.2170735,4.90690761 16.0536484,3.00968138 C15.7875349,2.84966391 15.4562676,2.84377151 15.1846317,2.9942238 C14.9129958,3.14467609 14.7422592,3.42861579 14.7367367,3.73908555 C14.7319046,4.01074658 14.8542068,4.2666069 15.0631332,4.43352647 L15.1584834,4.50041551 L15.4098588,4.65741089 C17.7320337,6.16111443 19.2050489,8.66092385 19.3911302,11.419457 L19.406123,11.7159705 L19.4111472,12.0142626 C19.4111472,16.8531397 15.4891139,20.775412 10.65,20.775412 C5.8110011,20.775412 1.88884829,16.8532592 1.88884833,12.0151263 C1.88664181,8.93285055 3.50538577,6.07648535 6.15069177,4.49472818 C6.53094617,4.26687469 6.67423837,3.79429933 6.49988594,3.39893993 L6.44963355,3.30189505 Z M10.6499978,0.5 C10.2070022,0.5 9.84135741,0.831740033 9.78772564,1.26068003 L9.78095377,1.3698043 L9.78095377,9.47936086 C9.78095377,9.9593206 10.170038,10.3484048 10.6499978,10.3484048 C11.0930375,10.3484048 11.4586449,10.0168774 11.5122707,9.58837189 L11.5190417,9.47936086 L11.5190417,1.3698043 C11.5190417,0.889333788 11.1299096,0.5 10.6499978,0.5 Z"></path></svg>