<svg width="20px" height="20px" viewBox="0 0 20 20" version="1.1" xmlns="http://www.w3.org/2000/svg"><path d="M19.9796088,10.6089064 L19.9066471,11.684944 L18.9253113,12.1375341 C18.1629893,12.4902363 17.5308051,13.0722037 17.1176835,13.8015753 C16.6948365,14.5319787 16.508513,15.3746277 16.5841505,16.2144805 L16.6790008,17.2832475 L15.7852192,17.8821569 C15.4322666,18.1184489 15.0647217,18.3320206 14.6816724,18.5192366 L13.7012487,19 L12.8129392,18.3656468 C12.1389514,17.8817963 11.328903,17.6222709 10.4982271,17.6240533 C9.66779127,17.6219893 8.85783601,17.8808488 8.18351496,18.3638291 L7.29520542,18.9981824 L6.31478167,18.5165101 C5.93355642,18.330203 5.56601153,18.1166313 5.21214695,17.8803393 L4.32018933,17.2805211 L4.41503962,16.2126628 C4.48971885,15.3718897 4.3031388,14.5285687 3.88059466,13.7970312 C3.46687316,13.0694522 2.83558972,12.4886801 2.0747909,12.1357165 L1.09345512,11.6831263 L1.02049336,10.6089064 C0.99316888,10.2034254 0.99316888,9.79657461 1.02049336,9.3910936 L1.09345512,8.31596487 L2.0747909,7.86337474 C2.83616536,7.51039297 3.4676059,6.92884074 3.88059466,6.20024236 C4.30297211,5.46899375 4.48924945,4.625919 4.41412759,3.78551953 L4.3192773,2.71675249 L5.21305895,2.11784308 C5.56418747,1.88155105 5.93355642,1.66888822 6.31660571,1.48167221 L7.29702947,1 L8.18442697,1.63526204 C8.86023534,2.11784308 9.66190277,2.37503787 10.5009631,2.37503787 C11.3306756,2.3769844 12.1399258,2.11846421 12.8138512,1.63617086 L13.7012487,1.00272645 L14.6816724,1.48258104 C15.0647217,1.67070585 15.4350027,1.8842775 15.7888673,2.12147835 L16.6808249,2.72129658 L16.5868866,3.78733718 C16.5130128,4.6325356 16.6963293,5.46591942 17.1195075,6.2029688 C17.5333775,6.93020989 18.1646455,7.51065005 18.9253113,7.86337474 L19.9075591,8.31596487 L19.9796088,9.3910936 C20.0067971,9.79657915 20.0067971,10.2034208 19.9796088,10.6089064 L19.9796088,10.6089064 Z M18.1765411,10.0018176 C18.176237,9.83868978 18.1704576,9.67561771 18.1592127,9.51287489 C17.055895,9.00184653 16.139736,8.16101613 15.5380612,7.10724023 C14.9304805,6.05369754 14.6624112,4.83957163 14.7701386,3.62920328 C14.4837636,3.4374432 14.1864444,3.26567707 13.8763569,3.11390488 C12.8923669,3.81755667 11.7111898,4.19495476 10.5000511,4.19266889 C9.28811753,4.19462199 8.106282,3.81658152 7.12192123,3.11208724 C6.81183371,3.26385942 6.51451451,3.43562555 6.23087562,3.62556801 C6.33899741,4.83584945 6.07124017,6.05000428 5.46386505,7.10360496 C4.86278773,8.15939454 3.94575611,9.00171146 2.84088946,9.51287489 C2.81905723,9.83726061 2.81905723,10.1627394 2.84088946,10.4871251 C3.94444637,10.9977078 4.86093937,11.8382345 5.46295302,12.8918509 C6.07112402,13.9461828 6.33951255,15.1612646 6.23178765,16.3726144 C6.51725058,16.5634656 6.81365775,16.7361406 7.1210092,16.8860951 C8.10517053,16.1819943 9.28668612,15.804272 10.4982271,15.8064223 C11.7230727,15.8064223 12.8931971,16.1853984 13.8763569,16.8879128 C14.1855324,16.7370494 14.4828516,16.5652832 14.7674025,16.374432 C14.658747,15.1636024 14.9272088,13.9488235 15.5362371,12.8954862 C16.1370766,11.8397288 17.0542048,10.9976409 18.1592127,10.4871251 C18.171069,10.3235383 18.1765411,10.1617691 18.1765411,10.0018176 L18.1765411,10.0018176 Z M10.5000511,13.635262 C8.48526749,13.635262 6.85196267,12.0076998 6.85196267,10 C6.85196267,7.99230021 8.48526749,6.36473795 10.5000511,6.36473795 C12.5148347,6.36473795 14.1481395,7.99230023 14.1481395,10 C14.1481395,12.0076998 12.5148347,13.635262 10.5000511,13.635262 Z M10.5000511,11.817631 C11.1517193,11.817631 11.7538856,11.4711925 12.0797198,10.9088155 C12.4055539,10.3464385 12.4055539,9.65356148 12.0797198,9.09118448 C11.7538856,8.52880748 11.1517193,8.18236899 10.5000511,8.18236899 C9.4926593,8.18236899 8.67600689,8.99615011 8.67600689,10 C8.67600689,11.0038499 9.4926593,11.817631 10.5000511,11.817631 L10.5000511,11.817631 Z"></path></svg>