<svg width="20px" height="20px" viewBox="0 0 20 20" version="1.1" xmlns="http://www.w3.org/2000/svg"><path d="M9.65285493,11.2599752 C9.11576932,10.6848964 8.86967704,9.99152064 8.73842783,9.25497076 C8.66150407,8.85803414 8.61731792,8.45544916 8.60631513,8.05127731 C8.58285388,7.61425746 8.60892421,7.17598625 8.68402848,6.74482952 C8.87917535,5.637846 9.46720637,4.87107426 10.3764526,4.32708083 C11.0077536,3.93512511 11.736822,3.72921415 12.4798939,3.73295129 C13.2225884,3.72911761 13.9513292,3.93472129 14.5824718,4.32621734 C15.4917181,4.8702108 16.0806126,5.63784602 16.2748959,6.74396605 C16.3551997,7.17829733 16.3724693,7.61435558 16.3526093,8.05127731 C16.3416065,8.45544916 16.2974203,8.85803414 16.2204966,9.25497076 C16.0892474,9.99152064 15.8431551,10.6848964 15.3060695,11.2599752 C15.280165,11.2962415 15.1894995,11.4482142 15.165322,11.4913883 C15.1756838,11.4982962 17.5960229,12.8358293 18.3541598,13.3409661 C18.983638,13.7606182 19.4101979,14.3633284 19.455099,15.1465063 C19.476686,15.5281652 19.5,16.2724864 19.5,16.6550088 C19.5,17.325934 19.1209315,17.5400775 18.6365183,17.5400775 C17.4552754,17.5400775 15.1920899,17.5435314 12.4798939,17.540941 C9.76683449,17.5435314 7.72901773,17.5366236 6.54777479,17.5400775 C6.02882229,17.540941 5.68429312,17.1428759 5.68429312,16.6550088 C5.68429312,16.2724864 5.73178462,15.5281652 5.75337165,15.1465063 C5.79654573,14.3633284 5.97528644,13.7606182 6.60476458,13.3418296 C7.36290149,12.8358293 9.48274902,11.6632212 9.76510753,11.5164293 C9.77374236,11.5077945 9.81691643,11.4991597 9.8281417,11.4905248 C9.80310074,11.4482142 9.67875938,11.2962415 9.65285493,11.2599752 Z M17.7756271,15.8234759 C17.7756271,14.9142297 17.5563028,14.45054 16.8318416,14.050748 C16.3025273,13.7580277 14.4987141,12.7753856 14.1697276,12.5413821 C13.7379868,12.2339826 13.5566556,11.7780643 13.6533655,11.2910606 C13.6671813,11.1900332 13.6965396,11.0872789 13.7405772,10.9836611 C13.822608,10.7911047 14.1032395,10.3826778 14.1153282,10.3688621 C14.3657379,10.0666435 14.5315264,9.73247614 14.6118302,9.35513465 C14.6342807,9.24633596 14.7827996,7.7404239 14.692134,7.17052599 C14.6118325,6.64926247 14.3365224,6.17796367 13.9219084,5.85198947 C13.7320974,5.71222115 13.5229586,5.6008162 13.301065,5.52127599 C13.0295197,5.42055538 12.7427234,5.36710963 12.453126,5.36325884 C12.1635286,5.36710963 11.8767323,5.42055538 11.605187,5.52127599 C11.368593,5.60762416 11.1622209,5.7190133 10.9834802,5.85198947 C10.5862786,6.16716027 10.3013297,6.61962469 10.214118,7.17052599 C10.1234524,7.7404239 10.2719713,9.24633596 10.2952853,9.35513465 C10.3747256,9.73247614 10.5396506,10.0657801 10.7909238,10.3688621 C10.802149,10.3826778 11.0836441,10.7919682 11.1656748,10.9836611 C11.2097124,11.0872789 11.2822449,11.1900332 11.296924,11.2910606 C11.3927705,11.7780642 11.1682653,12.2339826 10.7365244,12.5413821 C10.4084014,12.7745221 8.82995687,13.7588912 8.30064262,14.050748 C7.575318,14.4514035 7.3965773,14.9876256 7.41125648,15.8234759 L17.7756271,15.8234759 L17.7756271,15.8234759 Z M9.36963293,3.82280751 C8.71943122,3.48950359 7.90516799,3.41956157 7.11939968,3.70278357 C6.15920803,4.04990321 5.6238494,4.73032676 5.49000975,5.71296892 C5.39095095,6.47080208 5.43666125,7.2405517 5.62471289,7.98133529 C5.79827271,8.68075545 6.57626971,9.65821672 6.71097283,9.880995 C7.07104469,10.4742069 6.81890803,11.1390878 6.12898618,11.5354259 C5.74300987,11.7582042 5.33631,12.0008425 4.93479102,12.2236208 C4.33467126,12.5560612 3.73196103,12.8841843 3.12838734,13.2105803 C2.30203537,13.6578638 1.86597711,14.0222531 2.03435606,14.9712195 L3.95905673,14.9712195 C4.55744953,14.9712195 4.81822099,15.4133221 4.82081144,15.8321107 C4.82081144,16.2612611 4.51341196,16.6714149 3.95905673,16.6714149 C3.29935673,16.6714149 2.7959469,16.6740054 1.78826378,16.6714149 C0.923918605,16.667961 0.455048053,16.2129061 0.50340304,15.3666941 C0.526717046,14.9608577 0.557802386,14.6586391 0.581116391,14.2528027 C0.629471359,13.4178159 1.06121221,12.7762491 1.74163577,12.3306925 C2.5602164,11.7927434 3.43060594,11.3290538 4.28372582,10.8403231 C4.47541876,10.7306609 4.80613223,10.5665994 5.27672976,10.3481386 C5.20843284,10.260125 5.13700592,10.1745855 5.06258631,10.0916845 C4.38648016,9.38190257 4.11275647,8.53396355 3.98841509,7.60917469 C3.86580068,6.70079197 3.83298839,5.79154576 4.08167111,4.89525176 C4.67142909,2.77281378 7.02009928,1.53371758 9.25133595,2.16492268 C9.87045231,2.33934599 10.4144458,2.81771483 10.4144458,2.81771483 C10.8280535,3.22700515 9.57168764,3.9126096 9.36963293,3.82280751 L9.36963293,3.82280751 Z"></path></svg>